<svg width="100" height="100" viewBox="0 0 100 100" fill="none" xmlns="http://www.w3.org/2000/svg">
<g clip-path="url(#clip0_552_26)">
<path d="M40.2778 46.7361C45.7986 44.0973 48.6806 40.1042 48.6806 33.8889C48.6806 21.632 39.5486 18.6459 29.0104 18.6459H0V80.1736H29.8264C41.0069 80.1736 51.5104 74.8091 51.5104 62.3091C51.5104 54.5834 47.8472 48.8716 40.2778 46.7361V46.7361ZM13.5243 29.1493H26.2153C31.0937 29.1493 35.4861 30.5209 35.4861 36.1806C35.4861 41.4063 32.066 43.507 27.2396 43.507H13.5243V29.1493V29.1493ZM27.9861 69.7223H13.5243V52.7778H28.2639C34.2187 52.7778 37.9861 55.2605 37.9861 61.5625C37.9861 67.7778 33.4896 69.7223 27.9861 69.7223V69.7223ZM90.2257 27.9341H65.2778V21.875H90.2257V27.9341V27.9341ZM100 58.5417C100 45.3646 92.2917 34.375 78.316 34.375C64.7396 34.375 55.5208 44.5834 55.5208 57.9514C55.5208 71.823 64.2535 81.3368 78.316 81.3368C88.9583 81.3368 95.8507 76.5452 99.1667 66.3542H88.3681C87.2049 70.1563 82.4132 72.1702 78.6979 72.1702C71.5278 72.1702 67.7604 67.9688 67.7604 60.8334H99.8958C99.9479 60.1042 100 59.323 100 58.5417ZM67.7778 53.125C68.1771 47.2743 72.066 43.6111 77.934 43.6111C84.0799 43.6111 87.1701 47.2223 87.691 53.125H67.7778Z" fill="black"/>
</g>
<defs>
<clipPath id="clip0_552_26">
<rect width="100" height="100" fill="white"/>
</clipPath>
</defs>
</svg>
