<svg width="100" height="100" viewBox="0 0 100 100" fill="none" xmlns="http://www.w3.org/2000/svg">
<path d="M50 1.5625C23.2914 1.5625 1.5625 23.2914 1.5625 50C1.5625 76.7086 23.2914 98.4375 50 98.4375C76.7086 98.4375 98.4375 76.7086 98.4375 50C98.4375 23.2914 76.7086 1.5625 50 1.5625ZM82.0254 23.8996C87.7877 30.9398 91.2771 39.9068 91.3682 49.6721C90.0041 49.3836 76.3256 46.6092 62.5592 48.3404C61.4357 45.598 60.3754 43.1855 58.923 40.2127C74.2201 33.9672 81.1531 25.0795 82.0254 23.8996V23.8996ZM77.426 19.1152C76.6818 20.1752 70.4539 28.5461 55.7422 34.0604C48.9625 21.6041 41.4482 11.3713 40.3047 9.84004C53.425 6.67734 67.2512 10.0881 77.426 19.1152V19.1152ZM32.4104 12.6211C33.5012 14.117 40.8943 24.3625 47.7496 36.5486C28.3967 41.6879 11.3512 41.6139 9.50078 41.5895C12.1836 28.751 20.8355 18.0807 32.4104 12.6211ZM8.62695 50.0631C8.62695 49.64 8.63535 49.2189 8.64805 48.7988C10.4582 48.8359 30.5074 49.0943 51.1688 42.9109C52.3531 45.2289 53.4846 47.5818 54.523 49.9322C39.5623 54.1461 25.9695 66.2461 19.2631 77.7264C12.6551 70.3916 8.62695 60.6895 8.62695 50.0631ZM24.6049 82.7023C28.9266 73.8678 40.6553 62.4637 57.3352 56.7734C63.1437 71.8678 65.5459 84.5182 66.1611 88.148C52.858 93.8146 36.8613 92.26 24.6049 82.7023V82.7023ZM73.1166 84.3603C72.6926 81.8436 70.4904 69.732 65.0791 54.8617C78.0439 52.7863 89.4346 56.1836 90.85 56.6303C89.0059 68.1422 82.3982 78.0842 73.1166 84.3603Z" fill="black"/>
</svg>
