<svg width="100" height="100" viewBox="0 0 100 100" fill="none" xmlns="http://www.w3.org/2000/svg">
<path d="M25.8359 87.5H7.69531V29.082H25.8359V87.5ZM16.7559 21.1133C10.9551 21.1133 6.25 16.3086 6.25 10.5078C6.25 7.72148 7.35686 5.04928 9.3271 3.07905C11.2973 1.10882 13.9695 0.00195312 16.7559 0.00195312C19.5422 0.00195312 22.2144 1.10882 24.1846 3.07905C26.1549 5.04928 27.2617 7.72148 27.2617 10.5078C27.2617 16.3086 22.5547 21.1133 16.7559 21.1133ZM93.7305 87.5H75.6289V59.0625C75.6289 52.2852 75.4922 43.5938 66.1973 43.5938C56.7656 43.5938 55.3203 50.957 55.3203 58.5742V87.5H37.1992V29.082H54.5977V37.0508H54.8516C57.2734 32.4609 63.1895 27.6172 72.0156 27.6172C90.375 27.6172 93.75 39.707 93.75 55.4102V87.5H93.7305Z" fill="black"/>
</svg>
